<svg id="visual" viewBox="0 0 900 600" width="900" height="600" xmlns="http://www.w3.org/2000/svg" xmlns:xlink="http://www.w3.org/1999/xlink" version="1.1"><path d="M0 121L82 73L164 91L245 55L327 85L409 97L491 79L573 85L655 103L736 61L818 91L900 91L900 0L818 0L736 0L655 0L573 0L491 0L409 0L327 0L245 0L164 0L82 0L0 0Z" fill="#0a146e"></path><path d="M0 229L82 229L164 205L245 187L327 133L409 217L491 211L573 151L655 241L736 217L818 151L900 163L900 89L818 89L736 59L655 101L573 83L491 77L409 95L327 83L245 53L164 89L82 71L0 119Z" fill="#0b1a7a"></path><path d="M0 439L82 367L164 295L245 385L327 313L409 325L491 289L573 373L655 337L736 385L818 331L900 325L900 161L818 149L736 215L655 239L573 149L491 209L409 215L327 131L245 185L164 203L82 227L0 227Z" fill="#0b2086"></path><path d="M0 529L82 505L164 523L245 541L327 511L409 541L491 505L573 547L655 499L736 553L818 529L900 553L900 323L818 329L736 383L655 335L573 371L491 287L409 323L327 311L245 383L164 293L82 365L0 437Z" fill="#092693"></path><path d="M0 601L82 601L164 601L245 601L327 601L409 601L491 601L573 601L655 601L736 601L818 601L900 601L900 551L818 527L736 551L655 497L573 545L491 503L409 539L327 509L245 539L164 521L82 503L0 527Z" fill="#042da0"></path></svg>